<?xml version="1.0" standalone="no"?><!DOCTYPE svg PUBLIC "-//W3C//DTD SVG 1.1//EN" "http://www.w3.org/Graphics/SVG/1.1/DTD/svg11.dtd"><svg t="1758768400582" class="icon" viewBox="0 0 1024 1024" version="1.1" xmlns="http://www.w3.org/2000/svg" p-id="14971" xmlns:xlink="http://www.w3.org/1999/xlink" width="256" height="256"><path d="M821.008 665.008h-138v64h138a35.04 35.04 0 0 0 16-12.512c4-5.664 6-12.16 6-19.488a32.96 32.96 0 0 0-6-19.52 35.04 35.04 0 0 0-16-12.48z m172.992 90V256c-4-42-20.32-76.496-48.992-103.504-28.672-26.992-64-41.488-106-43.488H693.008v58.992h154.992c22.672 0.672 41.344 8.496 56 23.504 14.672 14.992 22.336 33.84 23.008 56.496v519.008c-0.672 22.656-8.32 41.488-23.008 56.48-14.656 15.008-33.328 22.848-56 23.52H693.008v58.992h154.992a157.584 157.584 0 0 0 57.008-12.496 145.328 145.328 0 0 0 47.504-32.496 146.752 146.752 0 0 0 31.488-48.512 140.544 140.544 0 0 0 10-57.488zM552.016 0h-24l-428 81.008c-29.344 7.328-53.008 22.16-71.008 44.496-18 22.336-27.68 48.496-29.008 78.496v608c2.672 29.328 12.848 55.008 30.512 77.008 17.664 22 40.832 37.328 69.488 46L528 1024h24c14.672 0 28.512-2.672 41.504-8a104.352 104.352 0 0 0 34.496-22.992 104.352 104.352 0 0 0 23.008-34.512 96.48 96.48 0 0 0 6.992-41.488v-810c-2-29.344-12.832-53.84-32.48-73.504-19.68-19.68-44.176-30.832-73.52-33.504z m38.992 917.008c0.672 11.328-2.832 20.992-10.496 28.992-7.68 8-17.168 11.68-28.496 11.008h-10L113.008 868c-14-2-25.504-8.16-34.496-18.496-9.008-10.336-13.168-22.832-12.512-37.504v-608c-0.656-14.672 3.344-27.168 12-37.504 8.672-10.32 20.336-16.48 35.008-18.496l430-80.992h9.008a44.96 44.96 0 0 1 26.992 12.992 40.48 40.48 0 0 1 12 27.008z m244.992-447.008h-138v68h138c9.344 0 17.344-3.328 24-10 6.672-6.672 10-14.832 10-24.496 0-9.664-3.328-17.84-10-24.496a29.536 29.536 0 0 0-24-9.008z m0-194h-138v67.008h138c9.344 0.656 17.344-2.512 24-9.504a34.4 34.4 0 0 0 10-24.496c0-9.344-3.328-17.344-10-24a29.536 29.536 0 0 0-24-9.008z m-494.992-106c-34 4.672-61.664 19.168-83.008 43.504-21.328 24.32-31.84 53.504-31.488 87.504 0.32 34 11.168 62.832 32.48 86.496 21.344 23.664 48.688 37.504 82.016 41.504 16-0.672 31.328-4.336 46-11.008a114.8 114.8 0 0 0 38.496-28.496 116.512 116.512 0 0 0 24-41.008 132.256 132.256 0 0 0 6.496-47.488c0-34-10.656-63.168-32-87.52-21.328-24.32-48.992-38.816-82.992-43.488z m0 192c-14 0-25.328-5.824-34-17.504-8.672-11.664-13.008-27.168-13.008-46.496 0-19.328 4.336-34.672 13.008-46 8.672-11.328 20-16.992 34-16.992s25.328 5.664 34 16.992c8.672 11.328 12.992 26.672 12.992 46s-4.32 35.168-12.992 47.504c-8.672 12.32-20 18.832-34 19.504z m60.992 370l64 146h75.008L369.008 495.008h-88l-148 320h74l40-82zM325.008 568L369.008 665.008h-87.008z" p-id="14972" fill="#13227a"></path></svg>